<svg width="31" height="39" viewBox="0 0 31 39" fill="none" xmlns="http://www.w3.org/2000/svg">
<path d="M8.15745 2L2.10097 16.2933C2.0172 16.4972 1.98479 16.7186 2.0066 16.9379C2.02841 17.1573 2.10377 17.3679 2.22604 17.5513C2.34832 17.7347 2.51377 17.8853 2.70787 17.9898C2.90196 18.0943 3.11875 18.1495 3.33918 18.1506H10.8492L5.46568 36.993L28.588 15.082C28.7801 14.8969 28.9128 14.659 28.9694 14.3983C29.026 14.1376 29.0038 13.8661 28.9057 13.618C28.8077 13.37 28.6381 13.1567 28.4186 13.0051C28.1991 12.8536 27.9395 12.7708 27.6728 12.7671H17.5786L22.9622 2H8.15745Z" stroke="white" stroke-width="2.69177" stroke-linecap="round" stroke-linejoin="round"/>
</svg>
