<svg width="46" height="39" viewBox="0 0 46 39" fill="none" xmlns="http://www.w3.org/2000/svg">
<path d="M34.3599 2.03188H11.1338C10.5983 2.04658 10.0738 2.18709 9.60273 2.44204C9.13163 2.69699 8.72713 3.05923 8.42195 3.49946L2.61542 11.5393C2.18426 12.1486 1.96893 12.8844 2.00361 13.63C2.03829 14.3756 2.32099 15.0883 2.80685 15.6549L20.2264 35.7225C20.5247 36.1068 20.9068 36.4178 21.3436 36.6317C21.7805 36.8456 22.2604 36.9569 22.7469 36.9569C23.2333 36.9569 23.7132 36.8456 24.1501 36.6317C24.5869 36.4178 24.9691 36.1068 25.2673 35.7225L42.6869 15.6549C43.1727 15.0883 43.4554 14.3756 43.4901 13.63C43.5248 12.8844 43.3095 12.1486 42.8783 11.5393L37.0718 3.49946C36.7666 3.05923 36.3621 2.69699 35.891 2.44204C35.4199 2.18709 34.8954 2.04658 34.3599 2.03188V2.03188Z" stroke="white" stroke-width="3.1904" stroke-linecap="round" stroke-linejoin="round"/>
<path d="M21.0879 2L13.3033 14.0597L22.7469 36.8711" stroke="white" stroke-width="3.1904" stroke-linecap="round" stroke-linejoin="round"/>
<path d="M24.5016 2L32.2543 14.0597L22.7469 36.8711" stroke="white" stroke-width="3.1904" stroke-linecap="round" stroke-linejoin="round"/>
<path d="M2.07301 14.0597H43.4206" stroke="white" stroke-width="3.1904" stroke-linecap="round" stroke-linejoin="round"/>
</svg>
