<svg width="56" height="40" viewBox="0 0 56 40" fill="none" xmlns="http://www.w3.org/2000/svg">
<path d="M51.4953 3.00003H44.9889C44.5392 2.99773 44.1022 3.14853 43.7496 3.42764C43.397 3.70674 43.15 4.09753 43.049 4.53571L40.988 12.6183L20.7816 8.57699C18.6315 8.15533 16.415 8.21264 14.2896 8.74484C12.1642 9.27705 10.1821 10.2711 8.48448 11.6562C6.78683 13.0413 5.41526 14.7835 4.46734 16.7589C3.51941 18.7342 3.01842 20.8942 3 23.0852C3 24.157 3.42578 25.1849 4.18366 25.9428C4.94155 26.7007 5.96946 27.1264 7.04128 27.1264H24.8229L28.8642 33.5117C29.5944 34.6499 30.5987 35.5867 31.7848 36.2363C32.971 36.8858 34.3011 37.2274 35.6535 37.2296H40.0989C40.4444 37.2269 40.7835 37.1356 41.0837 36.9645C41.3839 36.7933 41.6352 36.5481 41.8135 36.2521C41.9919 35.9562 42.0914 35.6195 42.1025 35.2741C42.1137 34.9287 42.036 34.5863 41.8771 34.2795L38.3208 27.2477H49.4747C50.5465 27.2477 51.5744 26.8219 52.3323 26.064C53.0902 25.3061 53.5159 24.2782 53.5159 23.2064V5.02066C53.5159 4.48476 53.3031 3.9708 52.9241 3.59186C52.5452 3.21291 52.0312 3.00003 51.4953 3.00003Z" stroke="white" stroke-width="4.04128" stroke-linecap="round" stroke-linejoin="round"/>
</svg>
