<svg className={} viewBox="0 0 900 159" fill="none" xmlns="http://www.w3.org/2000/svg">
<path d="M0 0L30 1C60 2 120 4.00001 180 15.2C240 26.3 300 46.7 360 58.5C420 70.3 480 73.7 540 70.3C600 67 660 57 720 49C780 41 840 35 870 32L900 29V160H870C840 160 780 160 720 160C660 160 600 160 540 160C480 160 420 160 360 160C300 160 240 160 180 160C120 160 60 160 30 160H0V0Z" fill="#6F2D96"/>
<path d="M0 52L30 48.8C60 45.7 120 39.3 180 45.2C240 51 300 69 360 77C420 85 480 83 540 77.2C600 71.3 660 61.7 720 53.8C780 46 840 40 870 37L900 34V160H870C840 160 780 160 720 160C660 160 600 160 540 160C480 160 420 160 360 160C300 160 240 160 180 160C120 160 60 160 30 160H0V52Z" fill="#8C2A91"/>
<path d="M0 97L30 91.3C60 85.7 120 74.3 180 74.5C240 74.7 300 86.3 360 88.8C420 91.3 480 84.7 540 78.7C600 72.7 660 67.3 720 68.7C780 70 840 78 870 82L900 86V160H870C840 160 780 160 720 160C660 160 600 160 540 160C480 160 420 160 360 160C300 160 240 160 180 160C120 160 60 160 30 160H0V97Z" fill="#A5288A"/>
<path d="M0 99L30 98.2999C60 97.6999 120 96.3 180 94.2C240 92 300 89 360 92C420 95 480 104 540 108.3C600 112.7 660 112.3 720 109.2C780 106 840 100 870 97L900 94V160H870C840 160 780 160 720 160C660 160 600 160 540 160C480 160 420 160 360 160C300 160 240 160 180 160C120 160 60 160 30 160H0V99Z" fill="#BA2A81"/>
<path d="M0 144L30 143.8C60 143.7 120 143.3 180 144C240 144.7 300 146.3 360 144.3C420 142.3 480 136.7 540 133.3C600 130 660 129 720 126.8C780 124.7 840 121.3 870 119.7L900 118V160H870C840 160 780 160 720 160C660 160 600 160 540 160C480 160 420 160 360 160C300 160 240 160 180 160C120 160 60 160 30 160H0V144Z" fill="#CC3178"/>
</svg>
